<?xml version="1.0" encoding="UTF-8"?>
<svg id="Capa_1" xmlns="http://www.w3.org/2000/svg" version="1.1" viewBox="0 0 234 74.22">
  <!-- Generator: Adobe Illustrator 29.5.1, SVG Export Plug-In . SVG Version: 2.1.0 Build 141)  -->
  <defs>
    <style>
      .st0 {
        fill: none;
      }
    </style>
  </defs>
  <g id="Layer_1-2">
    <g>
      <g>
        <path d="M127.92,12.22c-.2.81-.39,1.55-.58,2.3-1.52,6.06-3.04,12.12-4.57,18.18-.28,1.13-.57,2.25-.86,3.37-.05.19-.12.38-.19.56-.26.72-.8,1.08-1.57,1.09-1.42.02-2.83.02-4.25,0-.68-.01-1.22-.32-1.47-.94-.29-.7-.54-1.41-.76-2.12-2.89-9.04-5.78-18.08-8.66-27.12-.13-.39-.23-.8-.32-1.2-.04-.18-.04-.36-.02-.54.04-.4.34-.68.79-.68,1.5,0,3,0,4.5.03.65.01,1.13.34,1.35.92.25.65.47,1.32.65,2,2,7.49,4,14.98,6,22.47.06.22.12.45.22.67.12-.49.25-.99.37-1.48,1.88-7.6,3.76-15.2,5.65-22.8.06-.23.14-.46.22-.69.23-.69.75-1.02,1.48-1.09.25-.02.5-.04.75-.04,1.01,0,2.02,0,3.03,0,.21,0,.43.02.64.05.61.08,1.07.39,1.26.95.22.64.39,1.3.56,1.95,1.33,5.34,2.65,10.68,3.97,16.03.59,2.38,1.18,4.76,1.77,7.13.02.08.04.17.1.26.03-.09.06-.17.08-.26,2.19-8.07,4.38-16.15,6.58-24.22.09-.32.23-.63.36-.94.23-.57.71-.83,1.32-.91.23-.03.46-.04.69-.04,1.15,0,2.3,0,3.45,0h.07c.7.01,1.07.38.96,1.04-.1.57-.25,1.14-.43,1.69-3.07,9.38-6.15,18.77-9.22,28.15-.07.22-.16.43-.23.64-.29.78-.91,1.15-1.74,1.16-1.35.02-2.7.02-4.04,0-.91-.02-1.41-.37-1.68-1.2-.25-.75-.42-1.53-.61-2.3-1.39-5.49-2.77-10.97-4.16-16.45-.45-1.78-.9-3.56-1.35-5.34-.02-.06-.04-.12-.08-.24h-.02Z"/>
        <path d="M126.19,70.29c-1.2-.02-2.4-.02-3.61-.08-1.3-.06-2.61-.15-3.91-.25-1.23-.1-2.46-.22-3.69-.36-1.14-.14-2.27-.28-3.4-.48-1.84-.33-3.67-.67-5.49-1.06-2.49-.54-4.95-1.22-7.37-1.99-7.92-2.52-15.28-6.07-22.1-10.66-2.72-1.83-5.3-3.81-7.78-5.92-.26-.22-.48-.45-.56-.78-.16-.69.44-1.24,1.17-1.07.21.04.41.12.59.22,2.78,1.53,5.63,2.94,8.55,4.23,3.84,1.7,7.76,3.19,11.77,4.47,3.17,1.01,6.36,1.91,9.61,2.64,2.16.48,4.32.93,6.49,1.32,1.75.32,3.52.56,5.29.81,1.4.19,2.82.34,4.23.48,1.06.11,2.13.19,3.19.26,1.36.09,2.72.18,4.08.22,2.07.06,4.13.08,6.2.08,1.29,0,2.59-.06,3.87-.13,1.27-.06,2.53-.15,3.79-.26,1.22-.1,2.44-.23,3.66-.38,1.65-.2,3.3-.4,4.94-.67,2.16-.36,4.31-.76,6.44-1.2,4.1-.85,8.13-1.95,12.1-3.24,2.43-.79,4.83-1.66,7.19-2.61.55-.22,1.11-.33,1.69-.14,1.1.35,1.47,1.5.75,2.36-.17.2-.38.38-.6.54-3.58,2.51-7.43,4.58-11.47,6.34-4.93,2.14-10.05,3.78-15.32,4.96-2.11.47-4.24.86-6.37,1.23-1.45.25-2.93.42-4.4.58-1.35.15-2.7.27-4.06.35-1.83.11-3.66.16-5.5.24v-.04h0Z"/>
        <path d="M95.03,33.57c-.69.63-1.33,1.27-2.04,1.85-2.04,1.66-4.4,2.67-7.06,3.02-2.04.27-4.07.25-6.05-.32-3.61-1.04-5.82-3.34-6.6-6.85-.45-2.04-.36-4.07.38-6.05.84-2.24,2.45-3.87,4.58-5.05,1.45-.81,3.03-1.27,4.68-1.52,2.14-.32,4.28-.26,6.43-.02,1.71.19,3.38.51,5.05.87.05.01.1.01.16.02,0-.06.02-.1.02-.14-.03-1.38-.03-2.75-.09-4.13-.04-.9-.26-1.77-.6-2.61-.6-1.49-1.74-2.41-3.32-2.87-1.52-.45-3.08-.54-4.65-.49-2.83.08-5.48.85-8.08,1.82-.45.17-.9.32-1.37.44-.68.17-1.1-.1-1.12-.77-.03-.9-.02-1.8,0-2.7.01-.47.25-.87.68-1.11.59-.32,1.19-.63,1.82-.88,2.28-.9,4.65-1.49,7.11-1.72,2.55-.24,5.09-.18,7.6.36,1.67.36,3.24.97,4.58,2.01,1.66,1.28,2.62,2.97,3.19,4.89.46,1.56.6,3.15.6,4.76,0,3.85-.03,7.69.02,11.54.02,1.14.03,2.32.45,3.42.36.95.8,1.87,1.27,2.78.44.85.32,1.45-.51,1.99-.8.52-1.6,1.03-2.41,1.53-.82.51-1.57.4-2.24-.28-.95-.97-1.63-2.11-2.23-3.29-.08-.15-.16-.3-.23-.45,0-.01-.02-.02-.01-.01v-.02ZM87.21,22.79c-.97,0-2.39.09-3.75.55-1.65.56-2.84,1.58-3.38,3.2-.35,1.05-.36,2.14-.19,3.22.15.96.52,1.83,1.24,2.55.98.99,2.22,1.36,3.59,1.43,1.67.09,3.3-.16,4.83-.75,2.89-1.12,4.75-3.06,4.99-6.14.08-.99.07-1.98.11-2.97,0-.2-.06-.27-.26-.32-2.21-.48-4.45-.77-7.18-.79h0Z"/>
        <path d="M167.87,9.1c-1.22.01-2.63.1-3.97.57-.96.33-1.79.83-2.32,1.69-1.12,1.82-.53,4.06,1.39,5.23,1.1.67,2.32,1.11,3.56,1.48,2.14.66,4.28,1.29,6.41,1.97,1.32.42,2.54,1.03,3.64,1.87,1.74,1.34,2.75,3.08,3.06,5.18.29,1.97.02,3.88-.96,5.66-1.13,2.05-2.86,3.52-5.06,4.49-1.66.73-3.4,1.18-5.22,1.36-4.03.41-7.93-.17-11.7-1.54-.47-.17-.92-.43-1.36-.67-.65-.36-1.04-.91-1.06-1.63-.03-.8-.03-1.6.02-2.4.04-.66.47-.93,1.16-.81.3.06.59.15.87.26,1.35.55,2.71,1.03,4.14,1.35,2.27.5,4.56.69,6.88.5,1.37-.11,2.69-.4,3.88-1.09,2.34-1.34,2.44-3.81,1.73-5.23-.36-.72-.95-1.24-1.66-1.64-1.05-.59-2.19-.97-3.34-1.31-2.03-.61-4.08-1.19-6.1-1.84-1.63-.52-3.13-1.3-4.36-2.47-1.58-1.5-2.56-3.29-2.78-5.42-.35-3.3.97-5.91,3.68-7.93,1.8-1.34,3.87-2.08,6.12-2.41,2.32-.34,4.63-.24,6.94.16,1.39.24,2.75.55,4.05,1.07.55.22,1.07.53,1.56.87.51.35.75.87.75,1.48,0,.66,0,1.32,0,1.99,0,.05,0,.1,0,.15-.06.72-.5,1.04-1.23.87-.31-.07-.62-.18-.91-.3-2.41-1.07-4.95-1.51-7.78-1.52h-.02Z"/>
        <path d="M172.97,49.64c-1.29.07-2.59.13-3.89.22-1.18.08-2.36.2-3.53.31-.58.06-1.15.14-1.73.2-.14.02-.29.02-.44,0-.51-.06-.73-.44-.53-.89.16-.35.45-.58.77-.79,1.52-.99,3.18-1.7,4.94-2.21,1.37-.4,2.76-.66,4.18-.84,1.6-.2,3.2-.26,4.8-.2,1.75.07,3.49.24,5.16.77.21.07.41.16.62.23.73.26,1.02.79,1.11,1.49.17,1.32.02,2.63-.21,3.93-.39,2.19-1.06,4.3-2,6.33-1.18,2.56-2.72,4.89-4.89,6.79-.21.19-.43.38-.67.53-.2.12-.44.22-.67.26-.52.1-.88-.26-.74-.75.12-.41.3-.81.47-1.2.98-2.35,1.95-4.71,2.64-7.15.29-1.04.51-2.11.71-3.17.11-.61.11-1.24-.02-1.87-.13-.64-.53-1.07-1.14-1.32-.65-.27-1.33-.42-2.03-.48-.96-.08-1.94-.13-2.91-.19h0Z"/>
      </g>
      <rect class="st0" x="21.57" y="-62.51" width="209.63" height="199.48"/>
    </g>
  </g>
</svg>