<?xml version="1.0" encoding="UTF-8"?>
<svg id="Layer_2" xmlns="http://www.w3.org/2000/svg" version="1.1" viewBox="0 0 83.21 38.88">
  <!-- Generator: Adobe Illustrator 29.5.1, SVG Export Plug-In . SVG Version: 2.1.0 Build 141)  -->
  <defs>
    <style>
      .st0, .st1, .st2 {
        isolation: isolate;
      }

      .st0, .st3 {
        fill: none;
      }

      .st0, .st3, .st2 {
        stroke: #000;
        stroke-miterlimit: 10;
        stroke-width: .5px;
      }

      .st0, .st2 {
        font-family: Arial-BoldMT, Arial;
        font-size: 5.84px;
        font-weight: 700;
      }
    </style>
  </defs>
  <path class="st3" d="M26.69,26.67c-.9-2.04-1.4-4.29-1.4-6.66,0-2.59.6-5.05,1.67-7.23"/>
  <path class="st3" d="M27.78,28.73c2.89,4.62,8,7.71,13.84,7.77.05,0,.09,0,.14,0h.11s0,0,0,0h.04c6.37-.05,11.89-3.73,14.58-9.06,1.13-2.23,1.76-4.75,1.76-7.43s-.57-4.94-1.6-7.09"/>
  <path class="st3" d="M55.5,10.86c-2.93-4.39-7.91-7.29-13.57-7.34h-.04s-.02,0-.03,0h-.1s-.09,0-.14,0c-5.61.05-10.55,2.9-13.49,7.23"/>
  <path class="st3" d="M51.08,28.69c-1.88,4.62-5.22,7.72-9.04,7.81,0,0,0,0-.01,0h-.04s-.02,0-.03,0h-.08s-.09,0-.14,0c-4.1-.08-7.65-3.63-9.44-8.8-.8-2.3-1.25-4.91-1.25-7.69,0-2.97.51-5.75,1.41-8.15,1.84-4.92,5.3-8.26,9.27-8.34.05,0,.09,0,.14,0h.08s.02,0,.03,0h.04s0,0,0,0c3.96.09,7.41,3.42,9.25,8.34.9,2.4,1.41,5.19,1.41,8.15,0,2.28-.3,4.46-.86,6.44"/>
  <path class="st3" d="M37.62,16.3c.1-1.58.25-3.07.46-4.44.74-4.94,2.14-8.29,3.75-8.34h.04s.02,0,.03,0h.04s0,0,0,0c1.59.1,2.97,3.43,3.71,8.34.21,1.37.36,2.86.46,4.44"/>
  <path class="st3" d="M46.1,23.72c-.08,1.35-.21,2.63-.37,3.83-.71,5.24-2.14,8.84-3.8,8.95,0,0,0,0-.01,0h-.04s0,0,0,0h-.06c-1.66-.07-3.09-3.65-3.81-8.87-.17-1.22-.3-2.53-.38-3.91"/>
  <polyline class="st3" points="58.27 20.01 52.7 20.01 51.83 20.01"/>
  <polyline class="st3" points="25.29 20.01 30.83 20.01 31.89 20.01"/>
  <polyline class="st3" points="28.89 11.86 32.25 11.86 38.08 11.86 45.64 11.86 51.27 11.86 54.95 11.86"/>
  <line class="st3" x1="56.51" y1="27.43" x2="52.7" y2="27.47"/>
  <polyline class="st3" points="50.33 27.5 45.73 27.55 38 27.63 32.08 27.7 28.62 27.73"/>
  <rect class="st3" x="31.89" y="16.29" width="19.94" height="7.43" rx="3.71" ry="3.71"/>
  <circle class="st3" cx="27.71" cy="11.86" r="1.19"/>
  <circle class="st3" cx="56.14" cy="11.86" r="1.19"/>
  <circle class="st3" cx="51.52" cy="27.59" r="1.19"/>
  <circle class="st3" cx="27.44" cy="27.59" r="1.19"/>
  <g class="st1">
    <text class="st2" transform="translate(34.96 22.17)"><tspan x="0" y="0">CDN</tspan></text>
    <text class="st0" transform="translate(34.96 22.17)"><tspan x="0" y="0">CDN</tspan></text>
  </g>
</svg>