<?xml version="1.0" encoding="UTF-8"?>
<svg id="Layer_2" data-name="Layer 2" xmlns="http://www.w3.org/2000/svg" viewBox="0 0 500 500">
  <defs>
    <style>
      .cls-1, .cls-2, .cls-3 {
        fill: none;
      }

      .cls-2 {
        stroke-miterlimit: 10;
      }

      .cls-2, .cls-3 {
        stroke: #000;
        stroke-width: 3px;
      }

      .cls-3 {
        stroke-linecap: round;
        stroke-linejoin: round;
      }
    </style>
  </defs>
  <g id="Layer_1-2" data-name="Layer 1">
    <g>
      <g>
        <path class="cls-3" d="m289,114.3c-.87-.27-4.97-1.41-14.03-2.25-7.9-2.34-18.6-13.93-28.56-10.81-1.97.62-3.65,1.28-5.46,1.91-1.1.39-2.3-.21-2.65-1.32l-.23-.74c-.1-.33-.45-.51-.78-.41l-12.14,3.8c-.33.1-.51.45-.41.78l2.11,6.74c-.07.02-.15.04-.22.06l-16.88,5.29c-2.08.65-3.24,2.88-2.59,4.96.65,2.08,2.88,3.24,4.96,2.59l16.88-5.29c.07-.02.15-.05.22-.08l4.32,13.78c-.07.02-.15.04-.22.06l-16.88,5.29c-2.08.65-3.24,2.88-2.59,4.96.65,2.08,2.88,3.24,4.96,2.59l16.88-5.29c.07-.02.15-.05.22-.08l2.39,7.63c.1.33.45.51.78.41l12.14-3.8c.33-.1.51-.45.41-.78l-.2-.64c-.36-1.14.3-2.36,1.46-2.68,1.87-.51,4.45-1.23,5.52-1.57,9.85-3.09,5.01-17.38,16.33-18.28,8.19.8,11.56,1.81,11.58,1.82.06.02.13.04.19.06,58.64,16.28,99.6,70.21,99.6,131.15,0,75.04-61.05,136.09-136.09,136.09s-136.09-61.05-136.09-136.09c0-18.38,3.6-36.2,10.69-52.97.11-.26.18-.52.24-.79,1.23-1.63,3.22-2.44,7.25-1.84,10.67,1.59,23.7,3.72,33.11-12.94,9.41-16.67,19.26-42.77,27.5-47.42,0,0-36.14-12.97-62.82,9.5-24.72,20.82-22.53,41.17-16.74,50.94,30.96-57.01,69.39-58.19,69.39-58.19-39.53,9.06-60.6,44.59-66.25,57.12-.01.03-.03.05-.04.07-.03.06-.05.13-.08.19-.48,1.08-.85,2-1.09,2.68-6.79,17.06-10.24,35.09-10.24,53.64,0,80.05,65.12,145.17,145.17,145.17s145.17-65.12,145.17-145.17c0-64.97-43.66-122.47-106.17-139.87Z"/>
        <g>
          <g>
            <path class="cls-3" d="m213.53,251.93s-4.05-18.13,8.43-30.29"/>
            <path class="cls-3" d="m206.09,230.11s5.32,3.37,7.45,6.89"/>
            <path class="cls-3" d="m216.45,214.88c2.78,5.67,8.68,9.22,14.98,8.79,2.61-.18,5.53-.88,8.66-2.46,12-6.04,12.79-26.52,12.43-29.2-.36-2.68-.18-7.54-7.35-4.68-7.17,2.86-12.58,3.8-18.73,4.64-1.71.23-3.56.97-5.31,2.13-6.51,4.34-8.44,13.09-4.99,20.12l.32.66Z"/>
            <path class="cls-3" d="m179.38,219.97c-2.15-2.28-.84-6.02,2.26-6.45,3.69-.51,9.64-1.07,14.19-.27,7.13,1.25,11.47,4.83,11.47,11.24,0,3.79-4.32,13.1-13.74,9.06-3.98-1.71-9.24-8.6-10.49-9.64-.37-.31-3.13-3.34-3.7-3.94Z"/>
          </g>
          <rect class="cls-2" x="305.06" y="287.02" width="4.03" height="12.83" rx="1.72" ry="1.72"/>
          <rect class="cls-2" x="305.06" y="269.95" width="4.03" height="12.83" rx="1.72" ry="1.72"/>
          <rect class="cls-2" x="305.06" y="252.89" width="4.03" height="12.83" rx="1.72" ry="1.72"/>
          <rect class="cls-2" x="305.06" y="235.82" width="4.03" height="12.83" rx="1.72" ry="1.72"/>
          <rect class="cls-2" x="305.06" y="218.75" width="4.03" height="12.83" rx="1.72" ry="1.72"/>
          <path class="cls-2" d="m293,239.7l-25.44-9.3-.74-.27c-.54-.2-1.13-.18-1.65.05l-54.77,24.19c-.21.09-.35.3-.35.53v58.06c0,.32.26.58.58.58h54.77c.32,0,.58-.26.58-.58v-82.83,82.24c0,.65.53,1.17,1.17,1.17h25.44c.65,0,1.17-.53,1.17-1.17v-71.57c0-.49-.31-.93-.77-1.1Z"/>
          <path class="cls-2" d="m252.58,235.75v-15.23h0c0-1.87,1.1-3.57,2.81-4.32l32.56-14.36c.1-.04.2-.04.3,0l30.71,14.41c1.65.78,2.71,2.44,2.71,4.27h0v88.24c0,2.64-2.14,4.78-4.78,4.78h-59.54"/>
          <rect class="cls-2" x="217.74" y="256.75" width="38.08" height="5.1" rx="2.17" ry="2.17" transform="translate(-40.99 44.48) rotate(-9.88)"/>
          <rect class="cls-2" x="217.9" y="270.95" width="38.08" height="5.1" rx="2.17" ry="2.17" transform="translate(-26.58 25.51) rotate(-5.84)"/>
          <rect class="cls-2" x="217.74" y="284.55" width="38.08" height="5.1" rx="2.17" ry="2.17" transform="translate(-17.72 15.58) rotate(-3.63)"/>
          <rect class="cls-2" x="217.74" y="299.24" width="38.08" height="5.1" rx="2.17" ry="2.17" transform="translate(-8.15 6.57) rotate(-1.56)"/>
        </g>
      </g>
      <rect class="cls-1" width="500" height="500"/>
    </g>
  </g>
</svg>