<?xml version="1.0" encoding="UTF-8"?>
<svg id="Capa_1" xmlns="http://www.w3.org/2000/svg" version="1.1" xmlns:xlink="http://www.w3.org/1999/xlink" viewBox="0 0 131 37">
  <!-- Generator: Adobe Illustrator 29.3.1, SVG Export Plug-In . SVG Version: 2.1.0 Build 151)  -->
  <defs>
    <style>
      .st0 {
        fill: #0039cb;
      }
    </style>
  </defs>
  <path class="st0" d="M84.3,4.5h9.7l8.2,16.7,6-16.7h9.7l-10,28.2h-9.2l-8.8-16.7-6,16.7h-9.7s10.1-28.2,10.1-28.2Z"/>
  <path class="st0" d="M72.9,6.3c-1.1-1.2-2.9-1.9-5.1-1.9h-24.8l-10.1,28.2h9.7l3.2-9.2h4.7l5.1,9.2h11.2l-6-9.2h.2c2.9,0,5.1-.6,6.9-1.9,1.8-1.3,2.9-2.8,3.6-4.5l2.1-6c.6-1.8.4-3.3-.7-4.5h0v-.2ZM63.6,11.7l-1.6,4.6c0,.4-.4.5-.9.5h-12.8l1-2.8-3.2-2.8h17.1c.4,0,.6.1.4.5h0,0Z"/>
  <path class="st0" d="M25.6,4.5h9.7l-10,28.2h-9.7L25.6,4.5Z"/>
</svg>