<svg xmlns="http://www.w3.org/2000/svg" id="wordpress" width="63.19" height="63.19"><defs><style>.cls-1{fill:#32373c}</style></defs><g id="W_Mark" data-name="W Mark"><path class="cls-1" d="M99.22 8.3a29.49 29.49 0 0111.56 2.34 29 29 0 015 2.74 29.84 29.84 0 0110.76 13.06 29.67 29.67 0 01-2.74 28.17 29.81 29.81 0 01-8 8 29 29 0 01-5 2.74 29.84 29.84 0 01-23.12 0 29 29 0 01-5-2.74A30.46 30.46 0 0178.22 59a31.21 31.21 0 01-3.63-4.4 29.71 29.71 0 010-33.21A31.21 31.21 0 0178.22 17a30.46 30.46 0 014.4-3.62 29 29 0 015-2.74 29.49 29.49 0 0111.6-2.34m0-1.89A31.6 31.6 0 10130.82 38a31.59 31.59 0 00-31.6-31.59z" transform="translate(-67.63 -6.41)"/><path class="cls-1" d="M72.89 38a26.34 26.34 0 0014.84 23.7L75.17 27.29A26.23 26.23 0 0072.89 38zM117 36.68a13.92 13.92 0 00-2.17-7.27c-1.34-2.17-2.59-4-2.59-6.17a4.56 4.56 0 014.42-4.67h.34a26.31 26.31 0 00-39.78 4.95h1.7c2.75 0 7-.33 7-.33a1.09 1.09 0 01.16 2.17s-1.42.17-3 .25l9.59 28.52 5.77-17.23-4.1-11.24c-1.42-.08-2.76-.25-2.76-.25a1.09 1.09 0 01.16-2.17s4.35.33 6.94.33c2.75 0 7-.33 7-.33a1.09 1.09 0 01.16 2.17s-1.42.17-3 .25L112.37 54l2.71-8.6c1.21-3.81 1.92-6.47 1.92-8.72zm-17.31 3.63l-7.91 22.95a26.42 26.42 0 0016.22-.42 2 2 0 01-.19-.36zm22.64-14.94a20.84 20.84 0 01.17 2.71 24.91 24.91 0 01-2 9.43l-8 23.25a26.35 26.35 0 009.87-35.39z" transform="translate(-67.63 -6.41)"/></g></svg>