<?xml version="1.0" encoding="UTF-8"?>
<svg id="Capa_1" xmlns="http://www.w3.org/2000/svg" version="1.1" viewBox="0 0 234 74.22">
  <!-- Generator: Adobe Illustrator 29.5.1, SVG Export Plug-In . SVG Version: 2.1.0 Build 141)  -->
  <defs>
    <style>
      .st0 {
        fill: none;
      }
    </style>
  </defs>
  <g id="Layer_1-2">
    <g>
      <g>
        <path d="M13.27,16.92c.27-.26.51-.57.82-.75,3.5-2.02,7.01-4.01,10.51-6.02.51-.29.93-.28,1.44,0,3.52,2.03,7.05,4.05,10.58,6.05.51.29.72.66.72,1.24,0,7.58,0,15.15,0,22.73v.57c.34-.19.6-.33.86-.48,2.69-1.54,5.38-3.08,8.08-4.61.28-.16.37-.34.37-.66,0-3.78,0-7.55-.01-11.33,0-.59.21-.95.71-1.24,3.56-2.01,7.11-4.05,10.65-6.09.45-.26.84-.26,1.29,0,3.56,2.04,7.12,4.08,10.69,6.1.48.27.69.62.69,1.18-.01,4.04-.01,8.08,0,12.12,0,.53-.19.86-.65,1.12-3.37,1.92-6.74,3.85-10.11,5.76-.26.15-.36.3-.36.61,0,3.8,0,7.6.01,11.4,0,.55-.21.91-.68,1.18-7.25,4.13-14.48,8.27-21.72,12.41-.52.3-.95.29-1.47,0-7.25-4.15-14.5-8.29-21.74-12.44-.26-.15-.45-.45-.67-.68V16.94h0ZM15.09,18.71v.55c0,11.53,0,23.07,0,34.61,0,.38.11.58.44.77,6.52,3.71,13.04,7.44,19.56,11.16.12.07.24.12.4.2.01-.17.03-.27.03-.38,0-3.29,0-6.57,0-9.86,0-.29-.13-.41-.36-.54-3.31-1.85-6.62-3.73-9.94-5.57-.6-.33-.83-.75-.83-1.42.01-7.93,0-15.87.02-23.8,0-.34-.11-.51-.4-.67-2.84-1.6-5.66-3.23-8.49-4.84-.11-.06-.23-.12-.42-.22h0ZM26.23,47.08c.19-.11.33-.17.46-.25,2.82-1.61,5.63-3.22,8.46-4.82.28-.16.37-.35.37-.66,0-7.39,0-14.78,0-22.17,0-.14-.01-.27-.02-.46-.18.1-.31.17-.43.24-2.83,1.61-5.66,3.24-8.49,4.84-.26.15-.36.31-.36.62,0,7.39,0,14.78,0,22.17,0,.14.01.28.02.49h0ZM37.33,66.01c.2-.1.31-.15.42-.21,6.54-3.74,13.08-7.48,19.63-11.21.26-.15.37-.3.37-.61-.01-3.21,0-6.42,0-9.62,0-.13,0-.27-.02-.45-.15.07-.25.11-.33.16-6.57,3.72-13.13,7.44-19.71,11.15-.27.15-.36.31-.36.62,0,3.23,0,6.47,0,9.7v.47h0ZM56.79,42.33c-.09-.07-.14-.11-.2-.14-2.94-1.68-5.88-3.37-8.84-5.03-.13-.07-.38-.04-.53.04-6.02,3.43-12.03,6.86-18.04,10.3-.66.38-1.32.76-2.03,1.17.18.11.31.19.45.27,2.82,1.58,5.64,3.16,8.45,4.75.26.15.45.16.72,0,6.16-3.5,12.32-6.99,18.48-10.48.5-.28,1-.57,1.53-.88h0ZM67.92,23.39c-.14-.09-.24-.16-.34-.22-2.85-1.63-5.7-3.26-8.55-4.9-.27-.16-.47-.16-.75,0-2.83,1.63-5.68,3.25-8.51,4.88-.12.07-.23.14-.38.23.12.08.18.12.25.16,2.92,1.67,5.84,3.33,8.75,5.01.23.13.38.08.57-.04,2.15-1.23,4.3-2.46,6.46-3.69.82-.47,1.64-.94,2.5-1.44h0ZM16.05,17.12c.12.08.19.14.26.19,2.91,1.66,5.82,3.32,8.73,4.99.22.13.38.09.58-.02,2.87-1.65,5.75-3.29,8.62-4.93.1-.06.19-.13.31-.21-.1-.07-.15-.12-.22-.15-2.93-1.68-5.86-3.35-8.79-5.03-.23-.13-.37-.05-.53.05-2.19,1.25-4.37,2.5-6.56,3.75-.79.45-1.57.9-2.39,1.37h0ZM48.48,24.98c-.01.14-.03.25-.03.34,0,3.27,0,6.54,0,9.81,0,.25.1.37.3.49,2.87,1.63,5.73,3.27,8.59,4.9.12.07.24.12.4.19,0-.14.02-.22.02-.3,0-3.29,0-6.57,0-9.85,0-.28-.14-.39-.35-.5-2.84-1.62-5.68-3.24-8.52-4.87-.12-.07-.25-.13-.41-.21h0ZM68.85,24.98c-.16.07-.26.12-.36.17-2.89,1.65-5.77,3.3-8.66,4.94-.24.13-.28.3-.27.54,0,3.22,0,6.44,0,9.66v.44c.16-.08.26-.12.36-.17,2.88-1.64,5.75-3.29,8.63-4.92.25-.14.31-.3.31-.56,0-3.22,0-6.44,0-9.66v-.43Z"/>
        <path d="M157.93,36.41c0-.72.02-1.45,0-2.16-.01-.39.1-.49.49-.49,1.3.02,2.59,0,3.88,0,.14,0,.28.01.44.02v20.55h-4.79v-2.72c-.12.1-.16.13-.2.17-1.62,2.15-3.84,3.09-6.46,3.08-5.53-.03-9.36-3.99-10.25-8.65-.93-4.79,1.29-9.75,5.56-11.86,3.08-1.52,6.21-1.68,9.26.16.8.48,1.45,1.13,1.98,1.91.03-.01.07-.02.11-.04h0ZM151.73,50.64c1.5,0,2.85-.44,3.96-1.46,2.15-1.98,2.66-4.46,1.92-7.19-.68-2.54-2.87-4.32-5.31-4.48-2.71-.17-5.03,1.19-6.07,3.62-.62,1.45-.73,2.95-.43,4.5.57,2.94,3,5,5.93,5.01h0Z"/>
        <path d="M123.18,33.81v20.54h-4.78v-2.71c-.12.1-.18.13-.22.18-1.6,2.12-3.8,3.06-6.39,3.06-5.59,0-9.42-3.99-10.33-8.74-.91-4.74,1.39-9.67,5.6-11.77,2.89-1.44,5.86-1.65,8.82-.09.89.47,1.64,1.11,2.24,1.92.05.06.09.13.14.19.01.02.04.02.12.05v-2.64h4.82,0ZM112.24,50.65c2.07-.04,3.77-.91,4.98-2.67,1.56-2.28,1.56-5.57-.01-7.84-1.35-1.95-3.25-2.82-5.59-2.61-2.26.21-3.88,1.43-4.85,3.46-.69,1.46-.8,3.01-.51,4.6.55,2.96,3,5.04,5.99,5.05h0Z"/>
        <path d="M208.07,45.83h-16.17c.09.43.13.81.25,1.18.72,2.28,2.89,3.92,5.29,4.07,2.64.16,4.69-.98,6.46-2.79.12-.12.23-.25.38-.4,1.07.82,2.13,1.64,3.23,2.48-.5.5-.97,1-1.46,1.46-1.59,1.46-3.38,2.61-5.56,2.9-3.91.52-7.51-.13-10.44-3.01-1.56-1.53-2.39-3.45-2.72-5.6-.44-2.85,0-5.54,1.58-8,3.38-5.3,10.78-6.51,15.49-2.51,2.08,1.77,3.23,4.06,3.65,6.74.18,1.14.21,2.28.04,3.49h0ZM203.61,42.26c.02-2.76-2.59-5.18-5.61-5.23-3.35-.05-5.94,2.18-6.01,5.23h11.62Z"/>
        <path d="M100.21,49.85v4.5h-14.69v-30.91h5.04v25.8c0,.64-.1.61.63.61h9.02,0Z"/>
        <path d="M165.14,33.77h1c1.12,0,2.25.02,3.37,0,.39,0,.57.11.71.48,1.89,4.94,3.81,9.88,5.72,14.82.05.13.11.26.2.49.09-.2.15-.33.21-.47,1.92-4.96,3.85-9.92,5.76-14.9.13-.32.28-.43.63-.43,1.31.02,2.62,0,3.92,0,.14,0,.28,0,.48.02-.06.18-.1.31-.15.44-2.55,6.59-5.1,13.17-7.64,19.76-.12.3-.26.39-.57.39-1.87-.01-3.75,0-5.67,0-2.65-6.85-5.3-13.7-7.97-20.61h0Z"/>
        <path d="M211.34,23.42h4.76v30.92h-4.76v-30.92Z"/>
        <path d="M140.23,33.79v4.68h-.46c-2.47,0-4.94,0-7.41,0-.37,0-.46.11-.46.47,0,4.96,0,9.93,0,14.89v.53h-4.81c0-.17-.02-.32-.02-.48v-19.57c0-.36.18-.54.54-.54h12.13c.15,0,.31.01.48.02h0Z"/>
      </g>
      <rect class="st0" x="-5.77" y="-81.25" width="240.9" height="240.9"/>
    </g>
  </g>
</svg>